<?xml version="1.0" ?><svg height="100%" id="svg67" style="fill-rule:evenodd;clip-rule:evenodd;stroke-linejoin:round;stroke-miterlimit:2;" version="1.1" viewBox="0 0 64 64" width="100%" xml:space="preserve" xmlns="http://www.w3.org/2000/svg" xmlns:cc="http://creativecommons.org/ns#" xmlns:dc="http://purl.org/dc/elements/1.1/" xmlns:inkscape="http://www.inkscape.org/namespaces/inkscape" xmlns:rdf="http://www.w3.org/1999/02/22-rdf-syntax-ns#" xmlns:sodipodi="http://sodipodi.sourceforge.net/DTD/sodipodi-0.dtd" xmlns:svg="http://www.w3.org/2000/svg"><defs id="defs71"/><path d="m 37.715011,55.327491 c -2.186329,0.530298 -4.43316,0.750081 -6.669743,0.659153 -0.552445,-0.02245 -1.017771,0.407518 -1.039294,0.958944 -0.02227,0.552181 0.408076,1.018655 0.959781,1.040369 2.422714,0.09888 4.855854,-0.139763 7.22344,-0.713434 0.536325,-0.130018 0.865357,-0.671381 0.735602,-1.208135 -0.131245,-0.536735 -0.672721,-0.86618 -1.209786,-0.736897 z" id="path4" style="stroke-width:1.0533;fill:#000000"/><path d="m 47.10406,50.687817 c -1.776773,1.437961 -3.713231,2.585344 -5.744571,3.440543 -0.509324,0.213819 -0.747057,0.80089 -0.532966,1.310456 0.214839,0.508811 0.802345,0.747526 1.31167,0.533707 2.200868,-0.926717 4.300313,-2.170109 6.226096,-3.729961 0.429023,-0.346068 0.495017,-0.977778 0.14783,-1.406628 -0.347927,-0.429585 -0.979025,-0.495675 -1.408059,-0.148117 z" id="path8" style="stroke-width:1.0533;fill:#000000"/><path d="m 53.621164,42.484539 c -0.956672,1.978201 -2.202357,3.852249 -3.7344,5.558803 -0.369874,0.410824 -0.335334,1.043431 0.07629,1.413332 0.410885,0.369165 1.044134,0.335426 1.412517,-0.07538 1.661077,-1.848288 3.009829,-3.879367 4.047284,-6.023239 0.24086,-0.496993 0.03183,-1.096 -0.4648,-1.337413 -0.49738,-0.240658 -1.096032,-0.0331 -1.336891,0.463895 z" id="path12" style="stroke-width:1.0533;fill:#000000"/><path d="m 56.008542,32.281289 c -0.02299,2.235403 -0.357251,4.467496 -1.000099,6.626977 -0.158409,0.529412 0.143982,1.087705 0.673186,1.246014 0.529204,0.158308 1.087517,-0.143302 1.244436,-0.672695 0.696908,-2.338203 1.058467,-4.75611 1.083426,-7.17699 0.0059,-0.551964 -0.437207,-1.005606 -0.98976,-1.011669 -0.551804,-0.0068 -1.005302,0.4364 -1.011189,0.988363 z" id="path16" style="stroke-width:1.0533;fill:#000000"/><path d="M 8.0229261,33.195386 C 7.909629,30.95956 8.1062281,28.710678 8.6144895,26.51947 8.7394463,25.98082 8.4034059,25.443083 7.8657875,25.318402 7.328179,25.192231 6.7897534,25.527092 6.6655464,26.064988 6.115123,28.437739 5.9016458,30.873786 6.0248875,33.294931 6.0525115,33.847194 6.5226056,34.272176 7.074636,34.24473 7.6259167,34.21804 8.05055,33.747649 8.0229261,33.195386 Z" id="path20" style="stroke-width:1.0533;fill:#000000"/><path d="m 53.838498,22.023916 c 0.941121,2.059481 1.576942,4.225055 1.905689,6.427482 0.08203,0.546326 0.591908,0.923858 1.137595,0.842127 0.546427,-0.081 0.923649,-0.589485 0.841621,-1.135811 -0.356577,-2.386018 -1.044821,-4.732623 -2.064496,-6.963105 -0.229776,-0.502655 -0.823348,-0.724904 -1.326073,-0.495532 -0.501975,0.228618 -0.723371,0.822919 -0.494336,1.324839 z" id="path24" style="stroke-width:1.0533;fill:#000000"/><path d="m 9.7773907,22.862764 c 0.8349383,-2.039145 1.9619573,-3.987585 3.3828533,-5.779056 0.342459,-0.432058 0.26992,-1.061926 -0.163477,-1.40547 -0.431907,-0.343563 -1.062432,-0.271131 -1.404891,0.160927 -1.53956,1.942005 -2.7622383,4.053334 -3.6668324,6.264705 -0.2089269,0.51072 0.035942,1.095845 0.5476753,1.305776 0.5109933,0.209196 1.0964847,-0.03543 1.3046718,-0.546882 z" id="path28" style="stroke-width:1.0533;fill:#000000"/><path d="m 48.914816,14.970709 c 1.159378,1.151667 2.178152,2.393088 3.05349,3.701956 0.306771,0.459179 0.929296,0.582732 1.387846,0.276489 0.458559,-0.307732 0.581829,-0.929031 0.275058,-1.38821 -0.948349,-1.417381 -2.0506,-2.761217 -3.306901,-4.009163 -1.277758,-1.26926 -2.654874,-2.379305 -4.105296,-3.328247 -0.461965,-0.3029451 -1.083187,-0.173288 -1.384884,0.288764 -0.302437,0.461317 -0.172494,1.08223 0.290221,1.38442 1.339185,0.877432 2.610371,1.901745 3.790466,3.073991 z" id="path32" style="stroke-width:1.0533;fill:#000000"/><path d="m 15.775717,14.276113 c 1.691136,-1.551519 3.551653,-2.814824 5.520498,-3.792081 0.494636,-0.244905 0.696716,-0.8463979 0.450506,-1.3413862 C 21.50125,8.6483925 20.899352,8.4463632 20.405456,8.6920034 18.272232,9.750393 16.255366,11.119301 14.42262,12.80006 c -0.406857,0.372586 -0.434131,1.005271 -0.06074,1.413663 0.373398,0.406903 1.006982,0.434976 1.413839,0.06239 z" id="path36" style="stroke-width:1.0533;fill:#000000"/><path d="m 35.307754,8.2198546 c 2.20611,0.306576 4.377419,0.9204657 6.446163,1.8403354 0.504937,0.224172 1.096268,-0.0027 1.320052,-0.507613 0.224523,-0.504224 -0.0039,-1.0955256 -0.508847,-1.3211872 -2.241016,-0.9965272 -4.594451,-1.6608759 -6.983595,-1.993321 -0.547621,-0.076137 -1.052102,0.305939 -1.127961,0.8528742 -0.07586,0.5469351 0.306566,1.0527742 0.854188,1.1289116 z" id="path40" style="stroke-width:1.0533;fill:#000000"/><path d="M 24.858764,9.0610649 C 27.011729,8.395659 29.240093,8.0405709 31.474603,7.9944865 32.027275,7.9826721 32.465226,7.525512 32.453988,6.9730314 32.44126,6.4205707 31.983171,5.982023 31.431249,5.9930826 c -2.41998,0.050784 -4.833982,0.4358963 -7.165304,1.1565525 -0.527604,0.1626723 -0.823254,0.7237005 -0.659178,1.2510614 0.162585,0.5273806 0.724393,0.8230408 1.251997,0.6603684 z" id="path44" style="stroke-width:1.0533;fill:#000000"/><path d="m 14.363145,43.397535 -2.312008,7.292022 c -0.113,0.356001 -0.018,0.745002 0.246001,1.009003 0.264001,0.265001 0.654002,0.359001 1.010003,0.247001 l 7.290023,-2.312007 c 3.28501,2.130006 7.201022,3.36701 11.403035,3.36701 11.590036,0 21.000065,-9.410029 21.000065,-21.000065 0,-11.590036 -9.410029,-21.000065 -21.000065,-21.000065 -11.590036,0 -21.000065,9.410029 -21.000065,21.000065 0,4.200013 1.236004,8.114025 3.363011,11.397036 z m 2.051006,0.148 c 0.093,-0.292001 0.046,-0.612002 -0.126001,-0.865003 -2.075006,-3.045009 -3.28801,-6.722021 -3.28801,-10.680033 0,-10.486032 8.514027,-19.000059 19.000059,-19.000059 10.486033,0 19.000059,8.514027 19.000059,19.000059 0,10.486033 -8.514026,19.000059 -19.000059,19.000059 -3.960012,0 -7.639023,-1.214004 -10.685033,-3.29101 -0.254001,-0.173001 -0.573002,-0.220001 -0.866003,-0.127 l -5.909018,1.873005 c 0,0 1.874006,-5.910018 1.874006,-5.910018 z" id="path48" style="stroke-width:1;fill:#000000"/><path d="m 26.240181,55.303571 c -2.250007,-0.555001 -4.374013,-1.427004 -6.324019,-2.567008 -0.232001,-0.135 -0.508002,-0.172 -0.767003,-0.101 l -2.412007,0.658002 c -0.533002,0.145001 -0.847003,0.695002 -0.702002,1.227004 0.145,0.533002 0.696002,0.847003 1.228004,0.702002 l 2.011006,-0.548002 c 2.012006,1.132004 4.189013,2.004007 6.48602,2.571008 0.536002,0.132001 1.079003,-0.196 1.211004,-0.731002 0.132,-0.536001 -0.196001,-1.079003 -0.731003,-1.211004 z" id="path52" style="stroke-width:1;fill:#000000"/><path d="m 12.79346,54.384569 -4.3680139,1.191003 c 0,0 1.1760037,-4.312013 1.1760037,-4.312013 0.1450004,-0.532002 -0.1690006,-1.083003 -0.7020022,-1.228004 -0.5320017,-0.145 -1.0830034,0.169001 -1.2280038,0.702002 l -1.6360051,6.000019 c -0.095,0.346001 0.004,0.716002 0.2580008,0.970003 0.2530008,0.254001 0.6240019,0.352001 0.970003,0.258001 l 6.0560185,-1.652005 c 0.533002,-0.145001 0.847003,-0.695003 0.702002,-1.228004 -0.145,-0.532002 -0.696002,-0.847003 -1.228003,-0.701002 z" id="path56" style="stroke-width:1;fill:#000000"/><path d="m 10.636133,47.263547 0.680002,-2.495008 c 0.071,-0.258001 0.035,-0.534002 -0.099,-0.765003 C 10.100131,42.07553 9.2441287,39.978524 8.697127,37.760517 8.5651266,37.225515 8.0221249,36.897514 7.4861232,37.029515 c -0.5350017,0.132 -0.8630027,0.675002 -0.7310023,1.211004 0.5590018,2.264007 1.4140044,4.412013 2.5240079,6.400019 -0.001,0 -0.5730018,2.097007 -0.5730018,2.097007 -0.1450005,0.532002 0.1690005,1.083003 0.7020022,1.228004 0.5320016,0.145 1.0820038,-0.169001 1.2280038,-0.702002 z" id="path60" style="stroke-width:1;fill:#000000"/></svg>