<?xml version="1.0" ?><svg height="100%" id="svg15" style="fill-rule:evenodd;clip-rule:evenodd;stroke-linejoin:round;stroke-miterlimit:2;" version="1.1" viewBox="0 0 64 64" width="100%" xml:space="preserve" xmlns="http://www.w3.org/2000/svg" xmlns:cc="http://creativecommons.org/ns#" xmlns:dc="http://purl.org/dc/elements/1.1/" xmlns:inkscape="http://www.inkscape.org/namespaces/inkscape" xmlns:rdf="http://www.w3.org/1999/02/22-rdf-syntax-ns#" xmlns:sodipodi="http://sodipodi.sourceforge.net/DTD/sodipodi-0.dtd" xmlns:svg="http://www.w3.org/2000/svg"><defs id="defs19"/><path d="m 46.000546,25.999782 c 0,-4.967216 -4.032012,-8.999229 -9.000028,-8.999229 0,0 -28.0000882,0 -28.0000882,0 -1.6560052,0 -3.0000095,1.344004 -3.0000095,3.00021 v 17.999856 c 0,4.967216 4.0320127,8.999229 9.0000287,8.999229 0,0 28.000088,0 28.000088,0 1.656005,0 3.000009,-1.344005 3.000009,-3.00021 z m -2.000006,0 v 17.999856 c 0,0.553002 -0.448001,1.001003 -1.000003,1.001003 H 15.000449 c -3.864012,0 -7.0000223,-3.13741 -7.0000223,-7.000022 0,0 0,-17.999856 0,-17.999856 0,-0.553002 0.4480014,-1.001003 1.0000031,-1.001003 H 37.000518 c 3.864012,0 7.000022,3.137409 7.000022,7.000022 z" id="path4" style="stroke-width:1.67333;fill:#000000"/><path d="m 56.000601,19.414161 c 0,0 0,25.172079 0,25.172079 L 45.707938,34.293408 44.293197,35.707412 c 0,0 6.980021,6.979022 10.293189,10.292832 0.572107,0.572602 1.43211,0.743403 2.17948,0.434002 0.747371,-0.309401 1.234741,-1.038804 1.234741,-1.848006 V 19.414161 c 0,-0.809203 -0.48737,-1.538605 -1.234741,-1.848006 -0.74737,-0.309401 -1.607373,-0.1386 -2.17948,0.434001 -3.313168,3.313811 -10.293189,10.292833 -10.293189,10.292833 l 1.414741,1.414004 z" id="path8" style="stroke-width:0.858398;fill:#000000"/></svg>